<svg width="249" height="171" viewBox="0 0 249 171" fill="none" xmlns="http://www.w3.org/2000/svg">
<path d="M28.512 110.187C27.47 110.96 26.2893 111.842 24.959 112.628C22.3178 114.187 19.1111 116.048 19.0749 116.057L17.5584 116.604L18.9761 117.269C19.0046 117.284 21.9406 119.377 24.5171 121.272C25.5363 122.018 26.4679 122.82 27.3642 123.6C27.9015 124.071 28.4174 124.505 28.8982 124.892L24.9923 125.733C24.9923 125.733 21.0047 122.522 17.1969 120.118C15.092 118.792 12.0935 117.162 12.1257 116.8C12.1588 116.418 15.045 114.874 17.3129 113.68C21.1066 111.682 25.0801 109.13 25.0801 109.13L28.7809 109.993C28.6938 110.054 28.6061 110.115 28.512 110.187Z" fill="#0500FF"/>
<path d="M28.512 110.187C27.47 110.96 26.2893 111.842 24.959 112.628C22.3178 114.187 19.1111 116.048 19.0749 116.057L17.5584 116.604L18.9761 117.269C19.0046 117.284 21.9406 119.377 24.5171 121.272C25.5363 122.018 26.4679 122.82 27.3642 123.6C27.9015 124.071 28.4174 124.505 28.8982 124.892L24.9923 125.733C24.9923 125.733 21.0047 122.522 17.1969 120.118C15.092 118.792 12.0935 117.162 12.1257 116.8C12.1588 116.418 15.045 114.874 17.3129 113.68C21.1066 111.682 25.0801 109.13 25.0801 109.13L28.7809 109.993C28.6938 110.054 28.6061 110.115 28.512 110.187Z" fill="url(#paint0_linear)" fill-opacity="0.9"/>
<path d="M43.1796 113.247L137.32 115.421C171.566 115.721 246.124 116.381 248.387 116.404C251.326 116.434 228.585 124.156 228.585 124.156C228.585 124.156 206.127 131.07 178.005 130.786C167.464 130.68 149.798 130.636 143.06 130.568C141.57 128.82 141.214 120.739 119.491 120.676L119.499 120.631L43.2797 121.209L30.8606 123.872C30.201 123.377 29.4767 122.752 28.8888 122.248C28.0281 121.511 27.0608 120.671 26.0137 119.905C24.3985 118.712 22.6806 117.027 21.5509 116.426C22.7707 115.926 24.6155 114.409 26.2876 113.421C27.6699 112.604 28.8643 111.718 29.9138 110.941C30.1616 110.745 30.4456 110.536 30.7296 110.331L43.1796 113.247Z" fill="#0500FF"/>
<path d="M43.1796 113.247L137.32 115.421C171.566 115.721 246.124 116.381 248.387 116.404C251.326 116.434 228.585 124.156 228.585 124.156C228.585 124.156 206.127 131.07 178.005 130.786C167.464 130.68 149.798 130.636 143.06 130.568C141.57 128.82 141.214 120.739 119.491 120.676L119.499 120.631L43.2797 121.209L30.8606 123.872C30.201 123.377 29.4767 122.752 28.8888 122.248C28.0281 121.511 27.0608 120.671 26.0137 119.905C24.3985 118.712 22.6806 117.027 21.5509 116.426C22.7707 115.926 24.6155 114.409 26.2876 113.421C27.6699 112.604 28.8643 111.718 29.9138 110.941C30.1616 110.745 30.4456 110.536 30.7296 110.331L43.1796 113.247Z" fill="url(#paint1_linear)" fill-opacity="0.9"/>
<g filter="url(#filter0_b)">
<path d="M32.4723 132.502C31.3447 132.674 30.072 132.872 28.8214 133.211C26.3462 133.889 23.371 134.731 23.3508 134.743L22.2509 135.341L22.1795 134.092C22.1771 134.067 21.3771 131.062 20.615 128.4C20.3177 127.347 19.934 126.313 19.5623 125.311C19.3321 124.71 19.1256 124.148 18.9534 123.63L16.6588 125.489C16.6588 125.489 18.0857 129.782 18.8383 133.491C19.2586 135.543 19.6036 138.307 19.9537 138.5C20.3211 138.704 22.881 137.872 24.873 137.206C28.2026 136.09 32.1246 135.189 32.1246 135.189L32.7584 132.454C32.6639 132.469 32.5737 132.487 32.4723 132.502Z" fill="#0500FF"/>
<path d="M32.4723 132.502C31.3447 132.674 30.072 132.872 28.8214 133.211C26.3462 133.889 23.371 134.731 23.3508 134.743L22.2509 135.341L22.1795 134.092C22.1771 134.067 21.3771 131.062 20.615 128.4C20.3177 127.347 19.934 126.313 19.5623 125.311C19.3321 124.71 19.1256 124.148 18.9534 123.63L16.6588 125.489C16.6588 125.489 18.0857 129.782 18.8383 133.491C19.2586 135.543 19.6036 138.307 19.9537 138.5C20.3211 138.704 22.881 137.872 24.873 137.206C28.2026 136.09 32.1246 135.189 32.1246 135.189L32.7584 132.454C32.6639 132.469 32.5737 132.487 32.4723 132.502Z" fill="url(#paint2_linear)" fill-opacity="0.9"/>
<path d="M99.4708 53.3407C108.374 39.0465 111.194 20.6824 98.3387 12.3636C98.3413 12.3595 98.3441 12.3549 98.3484 12.3481C98.2911 12.3124 98.0664 12.1725 98.0137 12.1396C98.0095 12.1465 98.0069 12.1506 98.004 12.1552C84.8733 4.28881 69.8857 13.8674 60.9828 28.1616C51.767 42.9579 63.84 56.7421 62.9654 63.2106L27.6359 116.912L20.3368 122.841C20.538 123.529 20.8381 124.333 21.0777 124.978C21.431 125.932 21.8286 127.01 22.1359 128.087C22.6164 129.768 23.513 131.793 23.6327 132.828C24.5737 132.387 26.6989 132.164 28.2675 131.736C29.5667 131.377 30.85 131.181 31.985 131.007C32.2591 130.97 32.5638 130.921 32.869 130.873L34.9958 121.648L66.7861 68.4783C66.97 68.232 67.1537 67.986 67.3333 67.6976C70.8899 61.989 91.3455 66.3864 99.4708 53.3407ZM67.3032 53.9606C67.244 53.918 66.9074 53.6442 66.4688 53.1017C66.368 52.9595 66.2526 52.8112 66.1611 52.6533L65.9874 52.3831C65.5118 51.6255 64.8536 50.5827 64.3374 49.2528C62.6463 45.1958 63.0716 41.9919 63.299 38.5854C63.4313 37.4211 63.6599 36.4451 64.0396 35.3549C64.4015 34.4099 64.8058 33.5159 65.3174 32.5568C66.3349 30.7365 67.5117 29.2296 68.4362 28.1094C69.4933 26.8336 70.6171 25.9322 71.3572 25.3722C72.2465 24.7493 72.8567 24.3287 72.8567 24.3287C73.1347 24.1383 73.5338 24.2128 73.7691 24.5024C74.0017 24.8156 74.0248 25.1814 73.8149 25.4389C73.8021 25.4493 73.2346 26.0675 72.7188 26.7578C72.1395 27.3933 71.5639 28.3673 70.7971 29.6862C70.1201 30.8416 69.3985 32.3143 68.679 34.0877C68.3556 34.8426 68.0491 35.6785 67.78 36.5625C67.5371 37.3249 67.3487 38.265 67.2801 39.0229C67.088 42.5797 66.6154 45.9188 67.1111 48.6752C67.2199 49.2075 67.3393 49.7616 67.4377 50.2506C67.5785 50.9374 67.6893 51.5441 67.8398 51.9892C68.0361 52.7138 68.2438 53.1362 68.2412 53.1403C68.3931 53.4369 68.3501 53.7705 68.1231 53.9684C67.9032 54.145 67.5595 54.1571 67.3032 53.9606Z" fill="#0500FF"/>
<path d="M99.4708 53.3407C108.374 39.0465 111.194 20.6824 98.3387 12.3636C98.3413 12.3595 98.3441 12.3549 98.3484 12.3481C98.2911 12.3124 98.0664 12.1725 98.0137 12.1396C98.0095 12.1465 98.0069 12.1506 98.004 12.1552C84.8733 4.28881 69.8857 13.8674 60.9828 28.1616C51.767 42.9579 63.84 56.7421 62.9654 63.2106L27.6359 116.912L20.3368 122.841C20.538 123.529 20.8381 124.333 21.0777 124.978C21.431 125.932 21.8286 127.01 22.1359 128.087C22.6164 129.768 23.513 131.793 23.6327 132.828C24.5737 132.387 26.6989 132.164 28.2675 131.736C29.5667 131.377 30.85 131.181 31.985 131.007C32.2591 130.97 32.5638 130.921 32.869 130.873L34.9958 121.648L66.7861 68.4783C66.97 68.232 67.1537 67.986 67.3333 67.6976C70.8899 61.989 91.3455 66.3864 99.4708 53.3407ZM67.3032 53.9606C67.244 53.918 66.9074 53.6442 66.4688 53.1017C66.368 52.9595 66.2526 52.8112 66.1611 52.6533L65.9874 52.3831C65.5118 51.6255 64.8536 50.5827 64.3374 49.2528C62.6463 45.1958 63.0716 41.9919 63.299 38.5854C63.4313 37.4211 63.6599 36.4451 64.0396 35.3549C64.4015 34.4099 64.8058 33.5159 65.3174 32.5568C66.3349 30.7365 67.5117 29.2296 68.4362 28.1094C69.4933 26.8336 70.6171 25.9322 71.3572 25.3722C72.2465 24.7493 72.8567 24.3287 72.8567 24.3287C73.1347 24.1383 73.5338 24.2128 73.7691 24.5024C74.0017 24.8156 74.0248 25.1814 73.8149 25.4389C73.8021 25.4493 73.2346 26.0675 72.7188 26.7578C72.1395 27.3933 71.5639 28.3673 70.7971 29.6862C70.1201 30.8416 69.3985 32.3143 68.679 34.0877C68.3556 34.8426 68.0491 35.6785 67.78 36.5625C67.5371 37.3249 67.3487 38.265 67.2801 39.0229C67.088 42.5797 66.6154 45.9188 67.1111 48.6752C67.2199 49.2075 67.3393 49.7616 67.4377 50.2506C67.5785 50.9374 67.6893 51.5441 67.8398 51.9892C68.0361 52.7138 68.2438 53.1362 68.2412 53.1403C68.3931 53.4369 68.3501 53.7705 68.1231 53.9684C67.9032 54.145 67.5595 54.1571 67.3032 53.9606Z" fill="url(#paint3_linear)" fill-opacity="0.9"/>
</g>
<path d="M49.4424 0H47.2321L46.7208 37.6491H43.0451L42.4771 0H39.66L39.0398 37.6491H37.6315H37.4783H36.07L35.4168 0H32.426L32.0603 37.6491H28.2291V0H25.7702C25.7702 0 23.0826 36.9954 24.3306 42.3778C25.3549 46.8081 30.6627 51.0206 34.9296 52.3959L33.1761 123.105L30.105 131.997C30.647 132.474 31.3266 133.004 31.8687 133.424C32.6702 134.046 33.586 134.747 34.4134 135.504C35.7101 136.671 37.5417 137.916 38.1901 138.731C38.7532 137.865 40.4441 136.547 41.547 135.354C42.4628 134.368 43.4456 133.518 44.3145 132.776C44.5324 132.594 44.7633 132.392 44.9968 132.19L41.9257 123.235L40.6393 52.4012C44.8464 51.2756 49.905 48.116 51.0748 43.4467C52.5501 37.5688 49.4424 0 49.4424 0Z" fill="#0500FF"/>
<path d="M49.4424 0H47.2321L46.7208 37.6491H43.0451L42.4771 0H39.66L39.0398 37.6491H37.6315H37.4783H36.07L35.4168 0H32.426L32.0603 37.6491H28.2291V0H25.7702C25.7702 0 23.0826 36.9954 24.3306 42.3778C25.3549 46.8081 30.6627 51.0206 34.9296 52.3959L33.1761 123.105L30.105 131.997C30.647 132.474 31.3266 133.004 31.8687 133.424C32.6702 134.046 33.586 134.747 34.4134 135.504C35.7101 136.671 37.5417 137.916 38.1901 138.731C38.7532 137.865 40.4441 136.547 41.547 135.354C42.4628 134.368 43.4456 133.518 44.3145 132.776C44.5324 132.594 44.7633 132.392 44.9968 132.19L41.9257 123.235L40.6393 52.4012C44.8464 51.2756 49.905 48.116 51.0748 43.4467C52.5501 37.5688 49.4424 0 49.4424 0Z" fill="url(#paint4_linear)" fill-opacity="0.9"/>
<path d="M45.5201 133.771C44.6615 134.513 43.6787 135.354 42.7964 136.303C41.0532 138.187 38.9706 140.474 38.9599 140.5L38.337 141.584L37.6208 140.562C37.6051 140.542 35.3408 138.42 33.2864 136.558C32.4795 135.815 31.6079 135.141 30.7627 134.492C30.2465 134.103 29.7795 133.73 29.3539 133.382L28.3943 136.179C28.3943 136.179 31.8732 139.063 34.4822 141.813C35.9169 143.333 37.6677 145.496 38.0726 145.476C38.4928 145.455 40.2177 143.39 41.5591 141.776C43.7948 139.069 46.6538 136.236 46.6538 136.236L45.7434 133.574C45.6706 133.642 45.601 133.704 45.5201 133.771Z" fill="#0500FF"/>
<path d="M45.5201 133.771C44.6615 134.513 43.6787 135.354 42.7964 136.303C41.0532 138.187 38.9706 140.474 38.9599 140.5L38.337 141.584L37.6208 140.562C37.6051 140.542 35.3408 138.42 33.2864 136.558C32.4795 135.815 31.6079 135.141 30.7627 134.492C30.2465 134.103 29.7795 133.73 29.3539 133.382L28.3943 136.179C28.3943 136.179 31.8732 139.063 34.4822 141.813C35.9169 143.333 37.6677 145.496 38.0726 145.476C38.4928 145.455 40.2177 143.39 41.5591 141.776C43.7948 139.069 46.6538 136.236 46.6538 136.236L45.7434 133.574C45.6706 133.642 45.601 133.704 45.5201 133.771Z" fill="url(#paint5_linear)" fill-opacity="0.9"/>
<path d="M47.0027 63C21.6402 63 1 83.6359 1 109C1 134.358 21.6402 155 47.0027 155C72.3639 155 93 134.358 93 109C92.9998 83.6359 72.3639 63 47.0027 63ZM47.0027 151.569C23.5282 151.569 4.42944 132.472 4.42944 109C4.42944 85.5253 23.5282 66.4266 47.0027 66.4266C70.4745 66.4266 89.5747 85.5253 89.5747 109C89.5744 132.472 70.4742 151.569 47.0027 151.569Z" fill="#0500FF"/>
<path d="M47.0027 63C21.6402 63 1 83.6359 1 109C1 134.358 21.6402 155 47.0027 155C72.3639 155 93 134.358 93 109C92.9998 83.6359 72.3639 63 47.0027 63ZM47.0027 151.569C23.5282 151.569 4.42944 132.472 4.42944 109C4.42944 85.5253 23.5282 66.4266 47.0027 66.4266C70.4745 66.4266 89.5747 85.5253 89.5747 109C89.5744 132.472 70.4742 151.569 47.0027 151.569Z" fill="url(#paint6_linear)" fill-opacity="0.9"/>
<path d="M47.002 73C27.7045 73 12 88.7012 12 108C12 127.294 27.7045 143 47.002 143C66.2986 143 82 127.294 82 108C81.9998 88.7012 66.2986 73 47.002 73ZM47.002 140.39C29.141 140.39 14.6094 125.859 14.6094 108C14.6094 90.1389 29.141 75.6072 47.002 75.6072C64.861 75.6072 79.3938 90.1389 79.3938 108C79.3936 125.859 64.8608 140.39 47.002 140.39Z" fill="#0500FF"/>
<path d="M47.002 73C27.7045 73 12 88.7012 12 108C12 127.294 27.7045 143 47.002 143C66.2986 143 82 127.294 82 108C81.9998 88.7012 66.2986 73 47.002 73ZM47.002 140.39C29.141 140.39 14.6094 125.859 14.6094 108C14.6094 90.1389 29.141 75.6072 47.002 75.6072C64.861 75.6072 79.3938 90.1389 79.3938 108C79.3936 125.859 64.8608 140.39 47.002 140.39Z" fill="url(#paint7_linear)" fill-opacity="0.9"/>
<path d="M85.1113 152.143L85.0937 143.723C85.0937 139.785 84.9531 136.047 84.6718 132.508C84.6367 131.98 84.8066 131.641 85.1816 131.488C85.3925 131.395 85.6386 131.371 85.9199 131.418C86.4121 131.5 87.0097 131.541 87.7129 131.541C88.416 131.541 88.9258 131.541 89.2422 131.541C89.5703 131.529 89.8984 131.518 90.2265 131.506C91.0468 131.471 91.6035 131.436 91.8965 131.4C92.2011 131.365 92.4297 131.371 92.582 131.418C92.7461 131.465 92.8867 131.535 93.0039 131.629C93.2383 131.84 93.3554 132.08 93.3554 132.35C93.3554 132.607 93.25 132.824 93.039 133C92.8281 133.176 92.5351 133.258 92.1601 133.246C91.7968 133.223 91.3925 133.199 90.9472 133.176C90.5019 133.141 90.0215 133.117 89.5058 133.105C88.4277 133.07 87.5136 133.076 86.7636 133.123V136.164C86.7636 137.359 86.7578 138.578 86.7461 139.82C86.7343 143.137 86.7285 145.574 86.7285 147.133C88.334 147.133 89.5937 147.086 90.5078 146.992C91.4804 146.887 91.9668 147.139 91.9668 147.748C91.9668 148.334 91.2929 148.633 89.9453 148.645C89.6054 148.656 89.3359 148.662 89.1367 148.662L87.7304 148.645H86.7285L86.8867 158.928C86.8867 159.232 86.8047 159.49 86.6406 159.701C86.4883 159.9 86.3183 160 86.1308 160C85.9433 160 85.791 159.988 85.6738 159.965C85.5566 159.93 85.4453 159.871 85.3398 159.789C85.0937 159.578 84.9824 159.291 85.0058 158.928C85.0761 157.58 85.1113 155.318 85.1113 152.143ZM102.373 147.326C102.373 147.959 102.057 148.322 101.424 148.416C100.65 148.568 99.7773 149.23 98.8047 150.402C97.7617 151.668 97.1758 152.916 97.0468 154.146C97 154.686 96.9765 155.178 96.9765 155.623C96.9765 156.689 97.0234 157.809 97.1172 158.98C97.1406 159.367 97.041 159.66 96.8183 159.859C96.6074 160.059 96.373 160.158 96.1152 160.158C95.8691 160.158 95.6523 160.07 95.4648 159.895C95.2773 159.707 95.2011 159.432 95.2363 159.068C95.2715 158.693 95.3008 158.266 95.3242 157.785C95.3476 157.293 95.3711 156.777 95.3945 156.238C95.4179 155.324 95.4297 154.305 95.4297 153.18C95.4297 151.281 95.4062 149.875 95.3593 148.961C95.3125 148.035 95.3183 147.502 95.3769 147.361C95.4355 147.221 95.5117 147.109 95.6054 147.027C95.8047 146.84 96.0215 146.746 96.2558 146.746C96.5019 146.746 96.7187 146.834 96.9062 147.01C97.1054 147.186 97.1933 147.414 97.1699 147.695C97.1582 147.965 97.1347 148.234 97.0996 148.504C97.0761 148.762 97.0468 149.084 97.0117 149.471C96.9414 150.092 96.8769 150.754 96.8183 151.457C97.2988 150.25 97.9843 149.137 98.875 148.117C99.8711 147.004 100.738 146.447 101.477 146.447C101.793 146.447 102.021 146.535 102.162 146.711C102.303 146.887 102.373 147.092 102.373 147.326ZM109.949 148.17C109.562 147.889 109.105 147.748 108.578 147.748C108.062 147.748 107.588 147.895 107.154 148.188C106.732 148.469 106.375 148.867 106.082 149.383C105.484 150.414 105.186 151.832 105.186 153.637C105.186 155.43 105.473 156.754 106.047 157.609C106.621 158.465 107.389 158.893 108.35 158.893C109.404 158.893 110.248 158.289 110.881 157.082C111.443 156.004 111.725 154.68 111.725 153.109C111.725 150.695 111.133 149.049 109.949 148.17ZM108.332 160.387C107.664 160.398 107.037 160.264 106.451 159.982C105.877 159.689 105.379 159.238 104.957 158.629C104.031 157.34 103.568 155.506 103.568 153.127C103.568 150.994 104.066 149.312 105.062 148.082C106 146.91 107.242 146.324 108.789 146.324C110.09 146.324 111.168 146.887 112.023 148.012C112.902 149.207 113.342 150.848 113.342 152.934C113.342 155.254 112.832 157.105 111.812 158.488C110.898 159.73 109.738 160.363 108.332 160.387ZM125.875 151.475L125.84 155.271C125.84 156.525 125.881 157.697 125.963 158.787C125.986 159.186 125.887 159.484 125.664 159.684C125.453 159.871 125.225 159.965 124.978 159.965C124.744 159.965 124.527 159.877 124.328 159.701C124.141 159.514 124.064 159.238 124.1 158.875C124.146 158.5 124.182 158.072 124.205 157.592C124.24 157.111 124.27 156.613 124.293 156.098C124.34 155.066 124.363 154.217 124.363 153.549C124.363 152.869 124.352 152.377 124.328 152.072C124.305 151.768 124.281 151.316 124.258 150.719C124.234 150.109 124.076 149.541 123.783 149.014C123.49 148.475 123.08 148.205 122.553 148.205C122.025 148.205 121.568 148.316 121.182 148.539C120.795 148.762 120.437 149.055 120.109 149.418C119.441 150.203 118.996 151.117 118.773 152.16C118.762 152.488 118.756 152.811 118.756 153.127V154.041C118.756 156.162 118.779 157.568 118.826 158.26C118.873 158.939 118.832 159.396 118.703 159.631C118.574 159.854 118.346 159.965 118.018 159.965C117.701 159.965 117.449 159.865 117.262 159.666C117.086 159.455 117.016 159.074 117.051 158.523C117.168 157.012 117.227 155.459 117.227 153.865C117.227 151.135 117.186 149.131 117.103 147.854C117.057 147.068 117.385 146.676 118.088 146.676C118.451 146.676 118.68 146.787 118.773 147.01C118.879 147.232 118.914 147.467 118.879 147.713C118.855 147.959 118.838 148.17 118.826 148.346C118.826 148.521 118.826 148.703 118.826 148.891C118.826 149.078 118.826 149.248 118.826 149.4C119.518 148.088 120.437 147.227 121.586 146.816C121.949 146.688 122.318 146.623 122.693 146.623C123.068 146.623 123.455 146.711 123.853 146.887C124.252 147.051 124.598 147.326 124.891 147.713C125.547 148.557 125.875 149.811 125.875 151.475ZM130.533 143.336C130.533 142.926 130.633 142.621 130.832 142.422C131.031 142.223 131.248 142.123 131.482 142.123C131.717 142.123 131.928 142.223 132.115 142.422C132.303 142.621 132.373 142.926 132.326 143.336C132.221 144.426 132.156 145.691 132.133 147.133C133.094 147.133 133.82 147.104 134.312 147.045C134.805 146.986 135.156 146.957 135.367 146.957C136.164 146.934 136.562 147.227 136.562 147.836C136.562 148.188 136.357 148.434 135.947 148.574C135.807 148.621 135.643 148.639 135.455 148.627C135.268 148.615 135.062 148.609 134.84 148.609C134.629 148.598 134.418 148.592 134.207 148.592C133.844 148.592 133.492 148.592 133.152 148.592C132.824 148.592 132.531 148.598 132.273 148.609C132.227 148.609 132.174 148.609 132.115 148.609C132.115 148.633 132.115 148.65 132.115 148.662C132.115 153.514 132.186 156.25 132.326 156.871C132.467 157.492 132.619 157.938 132.783 158.207C133.076 158.676 133.451 158.91 133.908 158.91C134.646 158.91 135.145 158.547 135.402 157.82C135.508 157.234 135.807 156.941 136.299 156.941C136.475 156.941 136.627 157.018 136.756 157.17C136.896 157.311 136.967 157.521 136.967 157.803C136.967 158.084 136.879 158.389 136.703 158.717C136.527 159.045 136.293 159.332 136 159.578C135.355 160.117 134.635 160.387 133.838 160.387C132.385 160.387 131.383 159.584 130.832 157.979C130.633 157.393 130.533 156.672 130.533 155.816V148.732C130.287 148.744 130.018 148.762 129.725 148.785C129.361 148.797 129.086 148.709 128.898 148.521C128.723 148.322 128.635 148.117 128.635 147.906C128.635 147.684 128.728 147.49 128.916 147.326C129.103 147.15 129.385 147.062 129.76 147.062L130.533 147.08V143.336ZM139.533 152.318C139.533 152.049 139.627 151.809 139.814 151.598C140.002 151.387 140.336 151.316 140.816 151.387C141.297 151.457 141.959 151.492 142.803 151.492C143.646 151.492 144.338 151.463 144.877 151.404C145.428 151.346 145.797 151.422 145.984 151.633C146.184 151.832 146.283 152.049 146.283 152.283C146.283 152.518 146.189 152.734 146.002 152.934C145.826 153.133 145.557 153.221 145.193 153.197C144.83 153.174 144.437 153.15 144.016 153.127C143.605 153.092 143.201 153.074 142.803 153.074C142.193 153.074 141.637 153.104 141.133 153.162C140.629 153.209 140.307 153.215 140.166 153.18C140.025 153.133 139.908 153.062 139.814 152.969C139.627 152.805 139.533 152.588 139.533 152.318ZM152.91 150.35L152.945 156.59C152.945 157.152 152.945 157.633 152.945 158.031C152.957 158.207 152.963 158.359 152.963 158.488C155.916 158.488 157.879 158.441 158.852 158.348C159.859 158.242 160.445 158.213 160.609 158.26C160.773 158.307 160.914 158.383 161.031 158.488C161.266 158.699 161.383 158.934 161.383 159.191C161.383 159.438 161.271 159.654 161.049 159.842C160.826 160.018 160.516 160.094 160.117 160.07C158.195 159.918 156.461 159.895 154.914 160C153.367 160.094 152.5 160.152 152.312 160.176C152.125 160.211 151.955 160.211 151.803 160.176C151.662 160.152 151.533 160.094 151.416 160C151.146 159.801 151.023 159.508 151.047 159.121C151.223 155.734 151.311 151.99 151.311 147.889C151.311 143.775 151.311 141.191 151.311 140.137C151.322 139.07 151.328 138.098 151.328 137.219C151.305 135.332 151.264 134.002 151.205 133.229C151.146 132.443 151.158 131.975 151.24 131.822C151.334 131.67 151.445 131.559 151.574 131.488C151.75 131.406 151.973 131.389 152.242 131.436C152.734 131.518 153.385 131.559 154.193 131.559C155.752 131.559 156.812 131.529 157.375 131.471C157.949 131.4 158.318 131.395 158.482 131.453C158.646 131.5 158.781 131.57 158.887 131.664C159.121 131.852 159.238 132.08 159.238 132.35C159.238 132.619 159.133 132.842 158.922 133.018C158.711 133.193 158.424 133.275 158.061 133.264C157.697 133.24 157.311 133.217 156.9 133.193C156.49 133.158 156.051 133.129 155.582 133.105C154.598 133.07 153.742 133.082 153.016 133.141C153.016 134.16 153.01 135.174 152.998 136.182C152.986 137.377 152.975 138.59 152.963 139.82C152.928 143.125 152.91 145.562 152.91 147.133C154.375 147.133 155.453 147.098 156.145 147.027C156.895 146.945 157.363 146.98 157.551 147.133C157.75 147.285 157.85 147.49 157.85 147.748C157.85 148.393 157.246 148.703 156.039 148.68C155.793 148.668 155.57 148.662 155.371 148.662L153.947 148.645H152.91V150.35ZM172.879 151.475L172.844 155.271C172.844 156.525 172.885 157.697 172.967 158.787C172.99 159.186 172.891 159.484 172.668 159.684C172.457 159.871 172.228 159.965 171.982 159.965C171.748 159.965 171.531 159.877 171.332 159.701C171.145 159.514 171.068 159.238 171.103 158.875C171.15 158.5 171.186 158.072 171.209 157.592C171.244 157.111 171.273 156.613 171.297 156.098C171.344 155.066 171.367 154.217 171.367 153.549C171.367 152.869 171.355 152.377 171.332 152.072C171.309 151.768 171.285 151.316 171.262 150.719C171.238 150.109 171.08 149.541 170.787 149.014C170.494 148.475 170.084 148.205 169.557 148.205C169.029 148.205 168.572 148.316 168.186 148.539C167.799 148.762 167.441 149.055 167.113 149.418C166.445 150.203 166 151.117 165.777 152.16C165.766 152.488 165.76 152.811 165.76 153.127V154.041C165.76 156.162 165.783 157.568 165.83 158.26C165.877 158.939 165.836 159.396 165.707 159.631C165.578 159.854 165.35 159.965 165.021 159.965C164.705 159.965 164.453 159.865 164.266 159.666C164.09 159.455 164.02 159.074 164.055 158.523C164.172 157.012 164.23 155.459 164.23 153.865C164.23 151.135 164.189 149.131 164.107 147.854C164.061 147.068 164.389 146.676 165.092 146.676C165.455 146.676 165.684 146.787 165.777 147.01C165.883 147.232 165.918 147.467 165.883 147.713C165.859 147.959 165.842 148.17 165.83 148.346C165.83 148.521 165.83 148.703 165.83 148.891C165.83 149.078 165.83 149.248 165.83 149.4C166.521 148.088 167.441 147.227 168.59 146.816C168.953 146.688 169.322 146.623 169.697 146.623C170.072 146.623 170.459 146.711 170.857 146.887C171.256 147.051 171.602 147.326 171.895 147.713C172.551 148.557 172.879 149.811 172.879 151.475ZM184.041 152.266L184.023 148.557C183.344 148.123 182.699 147.906 182.09 147.906C181.492 147.906 180.965 148.029 180.508 148.275C180.062 148.51 179.658 148.867 179.295 149.348C178.475 150.414 178.064 151.826 178.064 153.584C178.064 156.057 178.633 157.686 179.77 158.471C180.145 158.729 180.572 158.857 181.053 158.857C181.533 158.857 181.943 158.758 182.283 158.559C182.623 158.359 182.91 158.113 183.145 157.82C183.566 157.281 183.853 156.643 184.006 155.904C184.029 154.943 184.041 153.73 184.041 152.266ZM185.465 134.688C185.453 135.566 185.441 136.498 185.43 137.482C185.43 138.455 185.43 140.553 185.43 143.775C185.43 146.986 185.488 150.104 185.605 153.127C185.734 156.139 185.822 157.779 185.869 158.049C185.928 158.318 185.986 158.547 186.045 158.734C186.115 158.922 186.174 159.074 186.221 159.191C186.279 159.309 186.309 159.449 186.309 159.613C186.309 159.777 186.232 159.924 186.08 160.053C185.939 160.193 185.781 160.264 185.605 160.264C184.844 160.264 184.445 159.508 184.41 157.996C184.41 157.961 184.41 157.932 184.41 157.908C183.637 159.561 182.477 160.387 180.93 160.387C179.594 160.387 178.516 159.836 177.695 158.734C176.816 157.551 176.377 155.893 176.377 153.76C176.377 151.521 176.957 149.699 178.117 148.293C179.172 147.004 180.42 146.359 181.861 146.359C182.67 146.359 183.361 146.506 183.936 146.799C183.924 145.955 183.918 145.082 183.918 144.18C183.906 143.055 183.895 141.936 183.883 140.822C183.871 139.697 183.853 138.607 183.83 137.553C183.818 136.498 183.807 135.508 183.795 134.582C183.771 132.648 183.742 131.348 183.707 130.68C183.672 130.012 183.76 129.59 183.971 129.414C184.182 129.227 184.416 129.133 184.674 129.133C184.943 129.133 185.184 129.227 185.395 129.414C185.617 129.59 185.705 129.918 185.658 130.398C185.623 130.879 185.588 131.494 185.553 132.244C185.518 132.994 185.488 133.809 185.465 134.688Z" fill="#AD0068"/>
<path d="M131.644 88.484C132.724 88.484 133.264 89.012 133.264 90.068C133.264 90.404 133.204 90.8 133.084 91.256C132.964 91.688 132.844 92.036 132.724 92.3C132.58 92.348 132.484 92.3 132.436 92.156C132.628 91.604 132.556 91.136 132.22 90.752C131.908 90.344 131.248 90.14 130.24 90.14C129.184 90.14 128.224 90.392 127.36 90.896C126.52 91.4 125.716 92.216 124.948 93.344C124.18 94.472 123.436 95.948 122.716 97.772C121.996 99.596 121.264 101.828 120.52 104.468C120.856 104.564 121.168 104.66 121.456 104.756C121.744 104.828 122.032 104.9 122.32 104.972C122.368 105.02 122.332 105.092 122.212 105.188C122.116 105.284 121.972 105.38 121.78 105.476C121.588 105.572 121.36 105.656 121.096 105.728C120.832 105.8 120.58 105.824 120.34 105.8C120.316 105.8 120.256 105.776 120.16 105.728C120.088 105.992 120.016 106.244 119.944 106.484C119.896 106.7 119.836 106.94 119.764 107.204C119.02 110.012 119.176 111.416 120.232 111.416C121.168 111.416 122.068 110.744 122.932 109.4C123.004 109.328 123.076 109.316 123.148 109.364C123.22 109.412 123.244 109.496 123.22 109.616C122.956 110.024 122.656 110.432 122.32 110.84C122.008 111.224 121.672 111.584 121.312 111.92C120.952 112.232 120.58 112.496 120.196 112.712C119.812 112.904 119.452 113 119.116 113C118.228 113 117.604 112.64 117.244 111.92C116.884 111.2 116.908 110.036 117.316 108.428C117.46 107.852 117.604 107.3 117.748 106.772C117.892 106.22 118.06 105.68 118.252 105.152C116.836 104.744 115.3 104.384 113.644 104.072C112.012 103.76 110.344 103.532 108.64 103.388C107.296 106.796 105.64 109.256 103.672 110.768C101.704 112.256 99.556 113 97.228 113C95.716 113 94.6 112.688 93.88 112.064C93.16 111.416 92.8 110.624 92.8 109.688C92.8 108.776 93.076 107.888 93.628 107.024C94.204 106.16 95.044 105.404 96.148 104.756C97.252 104.084 98.632 103.544 100.288 103.136C101.944 102.728 103.852 102.524 106.012 102.524H106.948C107.044 102.188 107.14 101.852 107.236 101.516C107.332 101.18 107.44 100.82 107.56 100.436C107.944 99.02 108.34 97.832 108.748 96.872C109.156 95.888 109.564 95.072 109.972 94.424C110.38 93.776 110.8 93.26 111.232 92.876C111.664 92.492 112.108 92.18 112.564 91.94C111.94 91.724 111.196 91.532 110.332 91.364C109.468 91.172 108.544 91.076 107.56 91.076C106.432 91.076 105.484 91.232 104.716 91.544C103.972 91.856 103.384 92.288 102.952 92.84C102.52 93.368 102.244 94.004 102.124 94.748C102.028 95.468 102.064 96.236 102.232 97.052C102.208 97.172 102.16 97.244 102.088 97.268C102.016 97.292 101.944 97.256 101.872 97.16C101.656 96.152 101.656 95.204 101.872 94.316C102.088 93.404 102.496 92.612 103.096 91.94C103.72 91.268 104.536 90.74 105.544 90.356C106.576 89.972 107.8 89.78 109.216 89.78C110.224 89.78 111.196 89.9 112.132 90.14C113.068 90.356 113.908 90.62 114.652 90.932C114.748 91.076 114.736 91.208 114.616 91.328C114.52 91.448 114.292 91.58 113.932 91.724C113.452 91.916 113.044 92.18 112.708 92.516C112.372 92.852 112.06 93.308 111.772 93.884C111.484 94.46 111.196 95.168 110.908 96.008C110.644 96.848 110.356 97.868 110.044 99.068C109.876 99.692 109.696 100.304 109.504 100.904C109.336 101.504 109.144 102.08 108.928 102.632C110.512 102.752 112.132 102.932 113.788 103.172C115.468 103.412 117.076 103.7 118.612 104.036C119.428 101.588 120.352 99.404 121.384 97.484C122.44 95.54 123.532 93.908 124.66 92.588C125.788 91.244 126.94 90.224 128.116 89.528C129.316 88.832 130.492 88.484 131.644 88.484ZM98.236 112.136C99.292 112.136 100.228 111.992 101.044 111.704C101.86 111.392 102.592 110.9 103.24 110.228C103.912 109.532 104.524 108.62 105.076 107.492C105.628 106.34 106.18 104.924 106.732 103.244C106.396 103.22 106.06 103.208 105.724 103.208C105.388 103.208 105.052 103.208 104.716 103.208C102.916 103.208 101.368 103.364 100.072 103.676C98.8 103.964 97.756 104.372 96.94 104.9C96.148 105.404 95.56 106.004 95.176 106.7C94.792 107.396 94.6 108.152 94.6 108.968C94.6 110 94.912 110.792 95.536 111.344C96.184 111.872 97.084 112.136 98.236 112.136ZM126.219 113C125.211 113 124.707 112.448 124.707 111.344C124.707 110.96 124.743 110.516 124.815 110.012C124.911 109.508 125.043 108.992 125.211 108.464C125.403 107.912 125.619 107.36 125.859 106.808C126.099 106.256 126.387 105.728 126.723 105.224C126.459 105.392 126.207 105.572 125.967 105.764C125.727 105.932 125.511 106.112 125.319 106.304C125.247 106.352 125.175 106.34 125.103 106.268C125.055 106.172 125.055 106.088 125.103 106.016C125.511 105.584 126.087 105.14 126.831 104.684C127.599 104.228 128.331 103.868 129.027 103.604C129.147 103.604 129.231 103.64 129.279 103.712C129.351 103.76 129.363 103.832 129.315 103.928C128.547 104.936 127.923 106.028 127.443 107.204C126.987 108.38 126.759 109.52 126.759 110.624C126.759 111.32 126.975 111.668 127.407 111.668C127.719 111.668 128.103 111.464 128.559 111.056C129.015 110.624 129.495 110.072 129.999 109.4C130.503 108.704 131.007 107.924 131.511 107.06C132.039 106.196 132.519 105.32 132.951 104.432C133.023 104.288 133.227 104.144 133.563 104C133.923 103.856 134.283 103.784 134.643 103.784C135.003 103.784 135.111 103.88 134.967 104.072C134.631 104.696 134.331 105.284 134.067 105.836C133.827 106.364 133.623 106.892 133.455 107.42C133.287 107.948 133.155 108.488 133.059 109.04C132.987 109.568 132.951 110.156 132.951 110.804C132.951 111.572 133.155 111.956 133.563 111.956C133.971 111.956 134.427 111.596 134.931 110.876C135.003 110.828 135.075 110.828 135.147 110.876C135.219 110.924 135.243 110.996 135.219 111.092C134.811 111.716 134.355 112.196 133.851 112.532C133.371 112.844 132.927 113 132.519 113C131.511 113 131.007 112.412 131.007 111.236C131.007 110.012 131.223 108.8 131.655 107.6C130.743 109.256 129.783 110.576 128.775 111.56C127.767 112.52 126.915 113 126.219 113ZM144.184 103.244C144.256 103.196 144.328 103.208 144.4 103.28C144.472 103.328 144.496 103.388 144.472 103.46C144.28 103.724 144.064 103.964 143.824 104.18C143.584 104.396 143.284 104.528 142.924 104.576C143.26 104.96 143.428 105.428 143.428 105.98C143.428 106.58 143.332 107.108 143.14 107.564C142.972 107.996 142.768 108.404 142.528 108.788C142.288 109.172 142.048 109.532 141.808 109.868C141.568 110.18 141.376 110.504 141.232 110.84C141.112 111.176 141.064 111.548 141.088 111.956C141.136 112.34 141.328 112.784 141.664 113.288C142.192 114.104 142.576 114.824 142.816 115.448C143.08 116.072 143.212 116.744 143.212 117.464C143.212 118.064 143.068 118.616 142.78 119.12C142.516 119.648 142.132 120.104 141.628 120.488C141.124 120.896 140.5 121.208 139.756 121.424C139.036 121.664 138.232 121.784 137.344 121.784C135.52 121.784 134.08 121.448 133.024 120.776C131.968 120.104 131.44 119.216 131.44 118.112C131.44 117.272 131.74 116.516 132.34 115.844C132.916 115.196 133.78 114.716 134.932 114.404C135.052 114.404 135.136 114.44 135.184 114.512C135.208 114.608 135.196 114.692 135.148 114.764C134.62 114.956 134.2 115.244 133.888 115.628C133.576 116.012 133.42 116.516 133.42 117.14C133.42 118.364 133.84 119.348 134.68 120.092C135.52 120.86 136.624 121.244 137.992 121.244C139.144 121.244 139.996 120.944 140.548 120.344C141.1 119.744 141.376 118.988 141.376 118.076C141.376 117.524 141.292 117.032 141.124 116.6C140.956 116.168 140.716 115.676 140.404 115.124C139.948 114.356 139.744 113.612 139.792 112.892C139.84 112.172 140.08 111.44 140.512 110.696C140.536 110.648 140.548 110.624 140.548 110.624C140.572 110.6 140.596 110.564 140.62 110.516C140.356 110.78 140.068 110.996 139.756 111.164C139.468 111.332 139.18 111.416 138.892 111.416C138.196 111.416 137.656 111.212 137.272 110.804C136.912 110.396 136.732 109.796 136.732 109.004C136.732 108.404 136.864 107.792 137.128 107.168C137.392 106.544 137.728 105.98 138.136 105.476C138.568 104.972 139.048 104.564 139.576 104.252C140.104 103.94 140.644 103.784 141.196 103.784C142.012 103.784 142.648 103.76 143.104 103.712C143.56 103.64 143.92 103.484 144.184 103.244ZM141.304 109.256C141.448 108.92 141.568 108.572 141.664 108.212C141.76 107.852 141.808 107.48 141.808 107.096C141.808 106.424 141.688 105.884 141.448 105.476C141.232 105.068 140.872 104.864 140.368 104.864C139.744 104.864 139.24 105.14 138.856 105.692C138.496 106.22 138.316 107.06 138.316 108.212C138.316 109.604 138.772 110.3 139.684 110.3C139.948 110.3 140.236 110.204 140.548 110.012C140.86 109.796 141.112 109.544 141.304 109.256ZM150.53 103.784C151.37 103.784 151.994 104.036 152.402 104.54C152.81 105.044 153.014 105.632 153.014 106.304C153.014 107.24 152.822 108.116 152.438 108.932C152.078 109.724 151.622 110.432 151.07 111.056C150.542 111.656 149.966 112.136 149.342 112.496C148.718 112.832 148.154 113 147.65 113C146.834 113 146.21 112.76 145.778 112.28C145.37 111.776 145.166 111.14 145.166 110.372C145.166 109.676 145.31 108.944 145.598 108.176C145.91 107.408 146.306 106.7 146.786 106.052C147.29 105.404 147.866 104.864 148.514 104.432C149.162 104 149.834 103.784 150.53 103.784ZM148.55 111.884C149.294 111.884 149.918 111.5 150.422 110.732C150.95 109.94 151.214 108.86 151.214 107.492C151.214 106.772 151.07 106.172 150.782 105.692C150.494 105.212 150.074 104.972 149.522 104.972C148.754 104.972 148.13 105.344 147.65 106.088C147.17 106.832 146.93 107.924 146.93 109.364C146.93 110.204 147.074 110.84 147.362 111.272C147.674 111.68 148.07 111.884 148.55 111.884ZM179.913 91.616C181.089 92.264 182.169 93.044 183.153 93.956C184.161 94.844 185.025 95.828 185.745 96.908C186.465 97.988 187.017 99.116 187.401 100.292C187.809 101.468 188.013 102.644 188.013 103.82C188.013 105.14 187.761 106.364 187.257 107.492C186.753 108.62 186.045 109.592 185.133 110.408C184.221 111.224 183.117 111.86 181.821 112.316C180.549 112.772 179.133 113 177.573 113C176.661 113 175.809 112.952 175.017 112.856C174.225 112.736 173.469 112.592 172.749 112.424C172.053 112.232 171.369 112.028 170.697 111.812C170.049 111.572 169.401 111.344 168.753 111.128C167.841 111.776 166.821 112.256 165.693 112.568C164.589 112.856 163.353 113 161.985 113C161.217 113 160.665 112.916 160.329 112.748C160.017 112.556 159.861 112.304 159.861 111.992C159.861 111.68 159.969 111.344 160.185 110.984C160.425 110.6 160.749 110.252 161.157 109.94C161.589 109.628 162.081 109.376 162.633 109.184C163.209 108.968 163.845 108.86 164.541 108.86C165.477 108.86 166.329 108.944 167.097 109.112C167.889 109.28 168.669 109.496 169.437 109.76C170.277 108.8 171.069 107.504 171.813 105.872C172.557 104.24 173.337 102.152 174.153 99.608C174.633 98.12 175.149 96.8 175.701 95.648C176.277 94.496 176.937 93.5 177.681 92.66C176.721 92.18 175.701 91.82 174.621 91.58C173.565 91.316 172.461 91.184 171.309 91.184C170.253 91.184 169.329 91.34 168.537 91.652C167.769 91.964 167.121 92.384 166.593 92.912C166.065 93.44 165.645 94.052 165.333 94.748C165.021 95.444 164.805 96.176 164.685 96.944C164.637 96.992 164.577 97.004 164.505 96.98C164.433 96.956 164.397 96.896 164.397 96.8C164.493 95.816 164.757 94.904 165.189 94.064C165.621 93.2 166.197 92.456 166.917 91.832C167.661 91.208 168.537 90.716 169.545 90.356C170.553 89.996 171.693 89.816 172.965 89.816C174.069 89.816 175.137 89.948 176.169 90.212C177.201 90.452 178.197 90.8 179.157 91.256C179.781 90.752 180.453 90.332 181.173 89.996C181.917 89.66 182.745 89.396 183.657 89.204C183.729 89.204 183.765 89.252 183.765 89.348C183.765 89.42 183.729 89.48 183.657 89.528C182.241 89.912 180.993 90.608 179.913 91.616ZM163.209 112.352C164.217 112.352 165.117 112.256 165.909 112.064C166.725 111.848 167.481 111.476 168.177 110.948C167.385 110.708 166.569 110.504 165.729 110.336C164.889 110.168 163.965 110.084 162.957 110.084C162.405 110.084 161.997 110.18 161.733 110.372C161.493 110.564 161.373 110.828 161.373 111.164C161.373 111.524 161.517 111.812 161.805 112.028C162.117 112.244 162.585 112.352 163.209 112.352ZM179.337 111.812C181.641 111.812 183.333 111.212 184.413 110.012C185.493 108.788 186.033 107.096 186.033 104.936C186.033 103.808 185.853 102.68 185.493 101.552C185.133 100.424 184.629 99.344 183.981 98.312C183.333 97.28 182.553 96.32 181.641 95.432C180.729 94.544 179.709 93.776 178.581 93.128C177.501 94.592 176.577 96.5 175.809 98.852C174.969 101.516 174.093 103.76 173.181 105.584C172.293 107.384 171.273 108.86 170.121 110.012C170.721 110.228 171.333 110.444 171.957 110.66C172.605 110.852 173.301 111.044 174.045 111.236C174.789 111.404 175.593 111.548 176.457 111.668C177.321 111.764 178.281 111.812 179.337 111.812ZM217.957 89.78C218.701 89.78 219.301 90.044 219.757 90.572C220.213 91.076 220.441 91.7 220.441 92.444C220.441 92.924 220.333 93.488 220.117 94.136C219.901 94.76 219.673 95.276 219.433 95.684C219.337 95.756 219.229 95.768 219.109 95.72C219.013 95.672 218.977 95.588 219.001 95.468C219.145 95.036 219.205 94.604 219.181 94.172C219.157 93.74 219.037 93.344 218.821 92.984C218.605 92.624 218.269 92.336 217.813 92.12C217.381 91.88 216.829 91.76 216.157 91.76C215.245 91.76 214.453 91.928 213.781 92.264C213.133 92.576 212.533 93.14 211.981 93.956C211.429 94.748 210.913 95.816 210.433 97.16C209.953 98.504 209.461 100.184 208.957 102.2C208.117 105.416 206.953 107.9 205.465 109.652C206.545 110.06 207.673 110.432 208.849 110.768C210.049 111.08 211.369 111.236 212.809 111.236C214.009 111.236 214.921 111.02 215.545 110.588C216.169 110.156 216.685 109.532 217.093 108.716C217.189 108.644 217.273 108.644 217.345 108.716C217.441 108.764 217.477 108.86 217.453 109.004C216.877 110.3 216.109 111.296 215.149 111.992C214.189 112.664 212.905 113 211.297 113C209.881 113 208.585 112.796 207.409 112.388C206.257 111.956 205.129 111.5 204.025 111.02C202.273 112.34 200.125 113 197.581 113C196.621 113 195.901 112.832 195.421 112.496C194.941 112.16 194.701 111.74 194.701 111.236C194.701 110.924 194.809 110.588 195.025 110.228C195.265 109.868 195.589 109.532 195.997 109.22C196.405 108.908 196.885 108.644 197.437 108.428C198.013 108.212 198.649 108.104 199.345 108.104C200.233 108.104 201.097 108.224 201.937 108.464C202.801 108.68 203.677 108.956 204.565 109.292C204.973 108.62 205.369 107.78 205.753 106.772C206.137 105.764 206.521 104.528 206.905 103.064C207.457 101 208.117 99.152 208.885 97.52C209.653 95.864 210.505 94.472 211.441 93.344C212.401 92.192 213.421 91.316 214.501 90.716C215.605 90.092 216.757 89.78 217.957 89.78ZM199.201 112.064C200.065 112.064 200.833 111.98 201.505 111.812C202.201 111.62 202.825 111.26 203.377 110.732C202.489 110.348 201.589 110.012 200.677 109.724C199.765 109.436 198.793 109.292 197.761 109.292C196.657 109.292 196.105 109.664 196.105 110.408C196.105 110.888 196.369 111.284 196.897 111.596C197.449 111.908 198.217 112.064 199.201 112.064ZM227.166 104.828C227.262 104.588 227.526 104.36 227.958 104.144C228.39 103.904 228.774 103.784 229.11 103.784C229.326 103.784 229.41 103.868 229.362 104.036C228.834 105.524 228.306 106.976 227.778 108.392C227.274 109.784 226.746 111.224 226.194 112.712C224.994 115.808 223.494 118.088 221.694 119.552C219.918 121.016 218.022 121.748 216.006 121.748C214.614 121.748 213.522 121.424 212.73 120.776C211.938 120.128 211.542 119.348 211.542 118.436C211.542 117.908 211.722 117.392 212.082 116.888C212.442 116.384 212.934 116.024 213.558 115.808C213.654 115.784 213.726 115.808 213.774 115.88C213.822 115.952 213.822 116.024 213.774 116.096C213.39 116.504 213.198 117.02 213.198 117.644C213.198 118.652 213.51 119.468 214.134 120.092C214.758 120.716 215.658 121.028 216.834 121.028C217.674 121.028 218.442 120.896 219.138 120.632C219.834 120.368 220.482 119.9 221.082 119.228C221.706 118.556 222.306 117.656 222.882 116.528C223.458 115.4 224.046 113.984 224.646 112.28C224.934 111.488 225.186 110.78 225.402 110.156C225.642 109.532 225.882 108.848 226.122 108.104C225.666 108.824 225.198 109.484 224.718 110.084C224.238 110.684 223.746 111.2 223.242 111.632C222.762 112.064 222.294 112.4 221.838 112.64C221.382 112.88 220.962 113 220.578 113C220.098 113 219.75 112.856 219.534 112.568C219.318 112.28 219.21 111.884 219.21 111.38C219.21 110.54 219.378 109.58 219.714 108.5C220.074 107.396 220.554 106.34 221.154 105.332C220.89 105.5 220.65 105.656 220.434 105.8C220.218 105.944 220.014 106.112 219.822 106.304C219.75 106.352 219.678 106.34 219.606 106.268C219.558 106.172 219.558 106.088 219.606 106.016C219.774 105.848 220.002 105.668 220.29 105.476C220.578 105.26 220.89 105.056 221.226 104.864C221.562 104.672 221.898 104.48 222.234 104.288C222.594 104.096 222.942 103.928 223.278 103.784C223.518 103.784 223.614 103.892 223.566 104.108C223.182 104.588 222.834 105.128 222.522 105.728C222.234 106.304 221.982 106.892 221.766 107.492C221.55 108.068 221.382 108.644 221.262 109.22C221.166 109.796 221.118 110.312 221.118 110.768C221.118 111.44 221.334 111.776 221.766 111.776C222.15 111.776 222.606 111.536 223.134 111.056C223.662 110.576 224.178 109.988 224.682 109.292C225.21 108.572 225.69 107.816 226.122 107.024C226.578 106.208 226.926 105.476 227.166 104.828ZM235.643 103.784C236.483 103.784 237.107 104.036 237.515 104.54C237.923 105.044 238.127 105.632 238.127 106.304C238.127 107.24 237.935 108.116 237.551 108.932C237.191 109.724 236.735 110.432 236.183 111.056C235.655 111.656 235.079 112.136 234.455 112.496C233.831 112.832 233.267 113 232.763 113C231.947 113 231.323 112.76 230.891 112.28C230.483 111.776 230.279 111.14 230.279 110.372C230.279 109.676 230.423 108.944 230.711 108.176C231.023 107.408 231.419 106.7 231.899 106.052C232.403 105.404 232.979 104.864 233.627 104.432C234.275 104 234.947 103.784 235.643 103.784ZM233.663 111.884C234.407 111.884 235.031 111.5 235.535 110.732C236.063 109.94 236.327 108.86 236.327 107.492C236.327 106.772 236.183 106.172 235.895 105.692C235.607 105.212 235.187 104.972 234.635 104.972C233.867 104.972 233.243 105.344 232.763 106.088C232.283 106.832 232.043 107.924 232.043 109.364C232.043 110.204 232.187 110.84 232.475 111.272C232.787 111.68 233.183 111.884 233.663 111.884Z" fill="#AD0068"/>
<defs>
<filter id="filter0_b" x="-0.425903" y="-4" width="121.979" height="152.644" filterUnits="userSpaceOnUse" color-interpolation-filters="sRGB">
<feFlood flood-opacity="0" result="BackgroundImageFix"/>
<feGaussianBlur in="BackgroundImage" stdDeviation="2"/>
<feComposite in2="SourceAlpha" operator="in" result="effect1_backgroundBlur"/>
<feBlend mode="normal" in="SourceGraphic" in2="effect1_backgroundBlur" result="shape"/>
</filter>
<linearGradient id="paint0_linear" x1="28.9731" y1="117.471" x2="12.1205" y2="117.301" gradientUnits="userSpaceOnUse">
<stop stop-color="#FC0000"/>
<stop offset="0.505208" stop-color="#FC0000" stop-opacity="0.15625"/>
<stop offset="1" stop-color="white" stop-opacity="0"/>
</linearGradient>
<linearGradient id="paint1_linear" x1="248.593" y1="122.081" x2="21.517" y2="119.79" gradientUnits="userSpaceOnUse">
<stop stop-color="#FC0000"/>
<stop offset="0.505208" stop-color="#FC0000" stop-opacity="0.15625"/>
<stop offset="1" stop-color="white" stop-opacity="0"/>
</linearGradient>
<linearGradient id="paint2_linear" x1="25.8824" y1="127.946" x2="19.4888" y2="138.211" gradientUnits="userSpaceOnUse">
<stop stop-color="#FC0000"/>
<stop offset="0.510417" stop-color="#FE8A8A" stop-opacity="0.458333"/>
<stop offset="1" stop-color="white" stop-opacity="0"/>
</linearGradient>
<linearGradient id="paint3_linear" x1="98.0378" y1="12.1546" x2="23.089" y2="132.489" gradientUnits="userSpaceOnUse">
<stop stop-color="#FC0000"/>
<stop offset="0.510417" stop-color="#FE8A8A" stop-opacity="0.458333"/>
<stop offset="1" stop-color="white" stop-opacity="0"/>
</linearGradient>
<linearGradient id="paint4_linear" x1="37.7361" y1="0" x2="37.7361" y2="138.731" gradientUnits="userSpaceOnUse">
<stop stop-color="#FC0000"/>
<stop offset="0.510417" stop-color="#FFE0E0" stop-opacity="0.119792"/>
<stop offset="1" stop-color="white" stop-opacity="0"/>
</linearGradient>
<linearGradient id="paint5_linear" x1="37.5241" y1="133.382" x2="37.5241" y2="145.476" gradientUnits="userSpaceOnUse">
<stop stop-color="#FC0000"/>
<stop offset="0.510417" stop-color="#FFE0E0" stop-opacity="0.119792"/>
<stop offset="1" stop-color="white" stop-opacity="0"/>
</linearGradient>
<linearGradient id="paint6_linear" x1="47" y1="63" x2="47" y2="155" gradientUnits="userSpaceOnUse">
<stop stop-color="#FC0000"/>
<stop offset="0.515625" stop-color="#FFDFDF" stop-opacity="0.125"/>
<stop offset="1" stop-color="white" stop-opacity="0"/>
</linearGradient>
<linearGradient id="paint7_linear" x1="47" y1="73" x2="47" y2="143" gradientUnits="userSpaceOnUse">
<stop stop-color="#FC0000"/>
<stop offset="0.515625" stop-color="#FFDFDF" stop-opacity="0.125"/>
<stop offset="1" stop-color="white" stop-opacity="0"/>
</linearGradient>
</defs>
</svg>
